<svg width="15" height="8" viewBox="0 0 15 8" fill="none" xmlns="http://www.w3.org/2000/svg">
<path fill-rule="evenodd" clip-rule="evenodd" d="M0.673255 1.00916C0.543361 1.1353 0.47092 1.30276 0.47092 1.47688C0.47092 1.651 0.543361 1.81846 0.673255 1.94461L6.38684 7.41521C6.5128 7.53763 6.66438 7.63509 6.83237 7.7017C7.00036 7.7683 7.18125 7.80264 7.36405 7.80264C7.54685 7.80264 7.72775 7.7683 7.89574 7.7017C8.06373 7.63509 8.21531 7.53763 8.34127 7.41521L14.0966 1.90414C14.225 1.77924 14.2973 1.61393 14.2988 1.44166C14.3003 1.26939 14.231 1.10303 14.1048 0.976217C14.0421 0.913599 13.9662 0.863516 13.8818 0.829062C13.7973 0.794607 13.7062 0.776513 13.6139 0.775895C13.5216 0.775278 13.4301 0.792151 13.3452 0.825472C13.2602 0.858794 13.1835 0.907856 13.1199 0.96963L7.85343 6.01204C7.79044 6.07332 7.71462 6.12211 7.63057 6.15546C7.54653 6.1888 7.45602 6.206 7.36456 6.206C7.2731 6.206 7.18259 6.1888 7.09855 6.15546C7.01451 6.12211 6.93869 6.07332 6.8757 6.01204L1.65098 1.00916C1.58808 0.947903 1.51235 0.899123 1.42839 0.865789C1.34443 0.832455 1.25401 0.815264 1.16263 0.815264C1.07125 0.815264 0.980823 0.832455 0.896864 0.865789C0.812906 0.899123 0.737171 0.947903 0.674273 1.00916" fill="black"/>
</svg>
